<?xml version="1.0" encoding="utf-8"?>
<!-- Generator: Adobe Illustrator 16.0.0, SVG Export Plug-In . SVG Version: 6.00 Build 0)  -->
<!DOCTYPE svg PUBLIC "-//W3C//DTD SVG 1.1//EN" "http://www.w3.org/Graphics/SVG/1.1/DTD/svg11.dtd">
<svg version="1.1" xmlns="http://www.w3.org/2000/svg" xmlns:xlink="http://www.w3.org/1999/xlink" x="0px" y="0px" width="24px"
	 height="24px" viewBox="0 0 24 24" enable-background="new 0 0 24 24" xml:space="preserve">
<g id="Layer_1">
	<path display="none" fill="none" d="M0,0h24v24H0V0z"/>
	<g>
		<rect x="6" y="2" fill="#BC9AE2" width="12" height="2"/>
		<path fill="#5E2B97" d="M20,10H4c-1.1,0-2,0.9-2,2v8c0,1.1,0.9,2,2,2h16c1.1,0,2-0.9,2-2v-8C22,10.9,21.1,10,20,10z"/>
		<rect x="4" y="6" fill="#7E57C2" width="16" height="2"/>
	</g>
</g>
<g id="Card_Greeked_Text" display="none">
	<rect x="4" y="19.74" display="inline" fill="#BC9AE2" width="13.792" height="0.791"/>
	<rect x="4" y="18.364" display="inline" fill="#BC9AE2" width="14.708" height="0.792"/>
	<rect x="4" y="16.99" display="inline" fill="#BC9AE2" width="16" height="0.792"/>
	<rect x="4" y="15.614" display="inline" fill="#BC9AE2" width="15" height="0.792"/>
	<rect x="4" y="14.219" display="inline" fill="#BC9AE2" width="15.583" height="0.792"/>
	<rect x="4" y="11.542" display="inline" fill="#FFFAFF" width="16" height="1.583"/>
</g>
<g id="C" display="none">
	<g display="inline">
		<path fill="#BC9AE2" d="M8.967,15.62c0-0.424,0.074-0.84,0.225-1.25s0.369-0.779,0.658-1.104s0.643-0.588,1.057-0.791
			c0.412-0.201,0.883-0.303,1.41-0.303c0.619,0,1.158,0.139,1.619,0.414c0.461,0.277,0.805,0.645,1.027,1.1l-1.457,1.037
			c-0.057-0.172-0.133-0.312-0.229-0.422c-0.094-0.111-0.197-0.199-0.309-0.264c-0.109-0.064-0.227-0.111-0.35-0.137
			c-0.125-0.027-0.238-0.039-0.342-0.039c-0.242,0-0.449,0.053-0.621,0.16s-0.314,0.248-0.428,0.42
			c-0.115,0.172-0.197,0.369-0.25,0.586c-0.053,0.219-0.078,0.436-0.078,0.648c0,0.242,0.031,0.473,0.092,0.695
			c0.062,0.221,0.152,0.416,0.273,0.586c0.121,0.168,0.268,0.305,0.441,0.402c0.172,0.102,0.367,0.152,0.59,0.152
			c0.109,0,0.225-0.016,0.34-0.043c0.119-0.029,0.23-0.076,0.338-0.146c0.107-0.066,0.205-0.156,0.293-0.264
			c0.086-0.109,0.156-0.238,0.211-0.395l1.555,0.928c-0.102,0.252-0.248,0.48-0.445,0.684c-0.201,0.199-0.426,0.369-0.68,0.506
			c-0.256,0.137-0.525,0.24-0.811,0.314c-0.287,0.07-0.566,0.105-0.84,0.105c-0.482,0-0.926-0.104-1.328-0.307
			c-0.404-0.205-0.75-0.477-1.039-0.816c-0.291-0.336-0.518-0.721-0.68-1.15C9.047,16.497,8.967,16.062,8.967,15.62z"/>
	</g>
</g>
</svg>
