<?xml version="1.0" encoding="utf-8"?>
<!-- Generator: Adobe Illustrator 15.1.0, SVG Export Plug-In . SVG Version: 6.00 Build 0)  -->
<!DOCTYPE svg PUBLIC "-//W3C//DTD SVG 1.1//EN" "http://www.w3.org/Graphics/SVG/1.1/DTD/svg11.dtd">
<svg version="1.1" xmlns="http://www.w3.org/2000/svg" xmlns:xlink="http://www.w3.org/1999/xlink" x="0px" y="0px" width="200px"
	 height="200px" viewBox="0 0 200 200" enable-background="new 0 0 200 200" xml:space="preserve">
<symbol  id="Person" viewBox="-56.742 -62.353 113.484 124.707">
	<path fill="#FFFFFF" d="M33.146,29.208C33.146,10.902,18.307-3.938,0-3.938s-33.146,14.84-33.146,33.146S-18.307,62.354,0,62.354
		S33.146,47.514,33.146,29.208z"/>
	<path fill="#FFFFFF" d="M56.74-62.354c0,0.025,0.002,0.052,0.002,0.078c0,36.302-25.404,65.73-56.742,65.73
		s-56.742-29.429-56.742-65.73c0-0.026,0.002-0.053,0.002-0.078H56.74z"/>
</symbol>
<g id="Layer_2" display="none">
	<rect x="-1" display="inline" width="200" height="201"/>
</g>
<g id="Layer_1">
	
		<use xlink:href="#Person"  width="113.484" height="124.707" x="-56.742" y="-62.353" transform="matrix(1.4594 0 0 -1.4594 99.9995 109.0049)" overflow="visible"/>
</g>
</svg>
