<?xml version="1.0" standalone="no"?>
<!DOCTYPE svg PUBLIC "-//W3C//DTD SVG 20010904//EN"
 "http://www.w3.org/TR/2001/REC-SVG-20010904/DTD/svg10.dtd">
<svg version="1.0" xmlns="http://www.w3.org/2000/svg"
 width="700.000000pt" height="700.000000pt" viewBox="0 0 700.000000 700.000000"
 preserveAspectRatio="xMidYMid meet">
<metadata>
Created by potrace 1.11, written by Peter Selinger 2001-2013
</metadata>
<g transform="translate(0.000000,700.000000) scale(0.100000,-0.100000)"
fill="#000000" stroke="none">
<path d="M1750 6125 l0 -292 1748 1 1747 1 3 291 2 290 -1750 0 -1750 0 0
-291z"/>
<path d="M1169 5233 c-10 -45 -2 -555 8 -561 8 -5 4565 -8 4643 -3 13 1 15 39
13 283 0 156 -2 286 -2 291 -1 4 -1049 7 -2330 7 -2210 0 -2329 -1 -2332 -17z"/>
<path d="M1095 4078 c-211 -27 -404 -178 -473 -371 -38 -108 -38 -118 -37
-1397 2 -1162 3 -1249 19 -1300 36 -110 100 -211 180 -280 53 -46 151 -101
221 -123 l70 -22 2425 0 2425 0 70 22 c190 60 338 209 398 398 l22 70 -1 1265
0 1265 -26 72 c-37 105 -72 159 -152 238 -89 88 -199 145 -314 161 -64 10
-4753 11 -4827 2z"/>
</g>
</svg>
